# xmcd
#
# Track frame offsets: 
#        150
#        15673
#        30829
#        44275
#        61715
#        74714
#        92934
#        109484
#        125851
#        139403
#        153168
#        176952
#        190527
#        205281
#
# Disc length: 2914 seconds
#
# Revision: 1
# Processed by: cddbd v1.5.2PL0 Copyright (c) Steve Scherf et al.
# Submitted via: ExactAudioCopyFreeDBPlugin 1.0
#
DISCID=cb0b600e
DTITLE=The Slocan Ramblers - Queen City Jubilee
DYEAR=2018
DGENRE=Folk;Hillside
TTITLE0=Mississippi Heavy Water Blues
TTITLE1=Just to Know
TTITLE2=Down in the Sugarbush
TTITLE3=Hillbilly Blues - Deer on the River
TTITLE4=Hill to Climb
TTITLE5=Long Chain Charlie and Moundsville
TTITLE6=First Train in the Morning
TTITLE7=New Morning
TTITLE8=Through and Through
TTITLE9=Sun's Gonna Shine in My Back Door Someday
TTITLE10=Makin' Home
TTITLE11=Mighty Hard Road
TTITLE12=Shut the Door
TTITLE13=Riley the Furniture Man
EXTD=
EXTT0=
EXTT1=
EXTT2=
EXTT3=
EXTT4=
EXTT5=
EXTT6=
EXTT7=
EXTT8=
EXTT9=
EXTT10=
EXTT11=
EXTT12=
EXTT13=
PLAYORDER=
